<svg xmlns="http://www.w3.org/2000/svg" width="602" height="551" fill="none"><path fill="#FFCF2D" d="m378.302 15.918 41.906 40.436 42.118 227.941H67.254z"/><path fill="#fff" d="m420.568 56.036-42.033-40.562 7.03-7.304c10.355-10.755 29.01-9.527 39.768.804 10.757 10.353 12.641 29.004 2.287 39.758z"/><path fill="#FFCF2D" d="m420.59 56.925-42.944-41.43 7.474-7.77c5.04-5.25 12.219-7.981 20.223-7.706 7.666.275 15.119 3.366 20.456 8.49 5.336 5.123 8.703 12.469 9.253 20.132.572 7.982-1.905 15.264-6.945 20.515zm-41.166-41.473 41.123 39.674 6.607-6.838c4.807-4.976 7.136-11.92 6.607-19.54-.53-7.368-3.748-14.397-8.873-19.308-5.124-4.912-12.26-7.876-19.608-8.13-7.624-.275-14.463 2.33-19.249 7.304z"/><path fill="#FFCF2D" d="M427.599 49.367a.7.7 0 0 1-.445-.17L385.1 8.636a.63.63 0 0 1-.022-.889c.254-.254.657-.254.89-.021l42.054 40.562a.63.63 0 0 1 .022.89.58.58 0 0 1-.445.19"/><path fill="#3FB1B5" d="M508.828 283.194a.6.6 0 0 1-.254-.063.643.643 0 0 1-.318-.847l58.974-131.511L451.929 10.456v-.021c-2.181-2.964-5.378-4.87-9.02-5.399a13.43 13.43 0 0 0-10.186 2.668l-4.701 3.599a.62.62 0 0 1-.889-.127.62.62 0 0 1 .127-.89l4.701-3.598a14.8 14.8 0 0 1 11.138-2.9c3.981.57 7.475 2.646 9.847 5.885l115.767 140.91-.17.36-59.143 131.87a.65.65 0 0 1-.572.381"/><path fill="#fff" d="M566.087 157.865a6.478 6.478 0 1 0 0-12.956 6.479 6.479 0 1 0 0 12.956"/><path fill="#FFCF2D" d="M566.087 158.501c-3.918 0-7.115-3.197-7.115-7.113s3.197-7.114 7.115-7.114c3.917 0 7.115 3.197 7.115 7.114s-3.198 7.113-7.115 7.113m0-12.956c-3.219 0-5.845 2.625-5.845 5.843s2.626 5.843 5.845 5.843 5.844-2.625 5.844-5.843-2.626-5.843-5.844-5.843"/><path fill="#fff" d="M492.396 267.824h31.573c9.084 0 16.432 7.368 16.432 16.428v.466h-64.459v-.466c.022-9.06 7.369-16.428 16.454-16.428"/><path fill="#FFCF2D" d="M541.036 285.354h-65.729v-1.101c.021-9.4 7.687-17.064 17.089-17.064h31.573c9.402 0 17.067 7.664 17.067 17.064zm-64.458-1.271h63.188c-.085-8.637-7.137-15.623-15.797-15.623h-31.573c-8.64 0-15.712 6.986-15.818 15.623"/><path fill="#fff" d="M339.444 236.64H139.568c-7.517 0-13.594-6.076-13.594-13.591V83.282c0-7.516 6.077-13.592 13.594-13.592h199.876c7.518 0 13.595 6.076 13.595 13.592v139.746c.021 7.515-6.077 13.612-13.595 13.612"/><path fill="#3FB1B5" d="M339.444 237.276H139.568c-7.856 0-14.23-6.373-14.23-14.227V83.282c0-7.854 6.374-14.226 14.23-14.226h199.876c7.857 0 14.23 6.372 14.23 14.226v139.746c.022 3.79-1.461 7.367-4.15 10.056a14.1 14.1 0 0 1-10.08 4.192M139.568 70.326c-7.136 0-12.959 5.822-12.959 12.956V223.05c0 7.135 5.823 12.956 12.959 12.956h199.876c3.473 0 6.734-1.354 9.191-3.81 2.435-2.456 3.79-5.716 3.769-9.167V83.282c0-7.134-5.823-12.956-12.96-12.956z"/><path fill="#66B0F0" d="M339.572 223.642H141.623a5.32 5.32 0 0 1-5.315-5.314V84.616a5.317 5.317 0 0 1 5.315-5.314h197.949a5.32 5.32 0 0 1 5.315 5.313v133.692c.021 2.942-2.372 5.335-5.315 5.335"/><path fill="#66B0F0" d="M339.572 224.277H141.623a5.955 5.955 0 0 1-5.951-5.949V84.616a5.955 5.955 0 0 1 5.951-5.949h197.949a5.955 5.955 0 0 1 5.95 5.949v133.691a5.82 5.82 0 0 1-1.715 4.213c-1.144 1.122-2.626 1.757-4.235 1.757M141.623 79.937a4.68 4.68 0 0 0-4.68 4.679v133.712a4.68 4.68 0 0 0 4.68 4.679h197.949a4.68 4.68 0 0 0 3.324-1.376 4.6 4.6 0 0 0 1.356-3.303V84.616a4.68 4.68 0 0 0-4.68-4.679z"/><path fill="#fff" d="M148.716 92.428h-3.134a2.504 2.504 0 0 1-2.499-2.498v-3.133a2.504 2.504 0 0 1 2.499-2.498h3.134a2.503 2.503 0 0 1 2.499 2.498v3.133c-.021 1.397-1.122 2.498-2.499 2.498m-3.134-6.859a1.23 1.23 0 0 0-1.228 1.228v3.133a1.23 1.23 0 0 0 1.228 1.228h3.134c.678 0 1.207-.55 1.228-1.249v-3.112c0-.677-.55-1.228-1.228-1.228zM162.967 92.428h-3.134a2.504 2.504 0 0 1-2.499-2.498v-3.133a2.504 2.504 0 0 1 2.499-2.498h3.134a2.503 2.503 0 0 1 2.499 2.498v3.133a2.503 2.503 0 0 1-2.499 2.498m-3.134-6.859a1.23 1.23 0 0 0-1.228 1.228v3.133a1.23 1.23 0 0 0 1.228 1.228h3.134c.678 0 1.228-.55 1.228-1.228v-3.133c0-.677-.55-1.228-1.228-1.228zM177.219 92.428h-3.134a2.503 2.503 0 0 1-2.499-2.498v-3.133a2.503 2.503 0 0 1 2.499-2.498h3.134a2.503 2.503 0 0 1 2.498 2.498v3.133a2.503 2.503 0 0 1-2.498 2.498m-3.134-6.859a1.23 1.23 0 0 0-1.229 1.228v3.133a1.23 1.23 0 0 0 1.229 1.228h3.134c.698 0 1.228-.53 1.228-1.228v-3.133a1.23 1.23 0 0 0-1.228-1.228zM281.699 284.295h-77.587l15.225-47.654h47.116z"/><path fill="#3FB1B5" d="M282.567 284.931h-79.324l15.628-48.925h48.047zm-77.587-1.271h75.85l-14.844-46.384h-46.184z"/><path fill="#3FB1B5" d="m210.21 265.221 9.127-28.58h47.115z"/><path fill="#fff" d="M328.052 123.781h-37.714c-3.875 0-7.03-3.154-7.03-7.029V92.407c0-3.875 3.155-7.03 7.03-7.03h37.714c3.875 0 7.03 3.155 7.03 7.03v24.345c0 3.875-3.155 7.029-7.03 7.029m-37.714-37.133a5.765 5.765 0 0 0-5.759 5.758v24.346a5.765 5.765 0 0 0 5.759 5.759h37.714a5.766 5.766 0 0 0 5.76-5.759V92.407a5.765 5.765 0 0 0-5.76-5.759z"/><path fill="#fff" d="M323.499 95.328h-28.777a.624.624 0 0 1-.636-.635c0-.36.276-.635.636-.635h28.777c.36 0 .635.275.635.635s-.275.635-.635.635M323.499 101.891h-28.777a.624.624 0 0 1-.636-.635c0-.36.276-.635.636-.635h28.777c.36 0 .635.275.635.635s-.275.635-.635.635M323.499 108.454h-28.777a.624.624 0 0 1-.636-.635c0-.36.276-.635.636-.635h28.777c.36 0 .635.275.635.635s-.275.635-.635.635M323.499 115.016h-28.777a.624.624 0 0 1-.636-.635c0-.36.276-.635.636-.635h28.777c.36 0 .635.275.635.635s-.275.635-.635.635M338.47 223.643H188.569l-8.788 12.596c-9.932 14.227-30.917 14.438-41.123.402l-53.532-73.609c2.245 2.794 12.515-.318 22.298-6.753 9.931-6.542 16.347-14.777 14.336-17.826l37.12 47.295 11.372-20.07a22.45 22.45 0 0 1 14.293-10.521l38.688-8.193h33.351l36.761 8.108a22.54 22.54 0 0 1 14.887 11.411z"/><path fill="#3FB1B5" d="M159.071 247.671c-8.364 0-15.988-3.874-20.922-10.67l-53.531-73.609 1.016-.762c1.8 2.223 11.35-.233 21.451-6.881 4.701-3.091 8.788-6.668 11.498-10.098 2.457-3.091 3.452-5.653 2.647-6.859l1.038-.741 36.528 46.554 10.905-19.244c3.198-5.462 8.555-9.4 14.696-10.818l38.772-8.215h33.479l.063.022 36.761 8.108a23.18 23.18 0 0 1 15.31 11.728l30.726 58.092H188.886l-8.597 12.321c-4.849 6.944-12.494 10.987-20.985 11.072zM87.074 164.62l52.113 71.64c4.743 6.521 12.07 10.226 20.138 10.141s15.331-3.917 19.947-10.522l8.979-12.871h149.182l-29.752-56.229a21.88 21.88 0 0 0-14.463-11.093l-36.697-8.087h-33.225l-38.624 8.171a21.9 21.9 0 0 0-13.87 10.226l-11.837 20.895-36.295-46.236c-.296 1.588-1.334 3.578-3.113 5.8-2.795 3.515-6.988 7.198-11.794 10.353-6.713 4.403-14.781 7.875-19.588 7.875-.381 0-.762-.021-1.101-.063"/><path fill="#3FB1B5" d="M297.327 223.41a.67.67 0 0 1-.572-.338l-10.651-21.023c-.149-.317-.043-.698.275-.846.317-.149.699-.043.847.275l10.651 21.022c.148.318.042.699-.275.847a.6.6 0 0 1-.275.063M187.722 225.379a.7.7 0 0 1-.297-.064.615.615 0 0 1-.275-.846l10.545-20.811a.616.616 0 0 1 .847-.275c.318.148.445.55.276.847l-10.546 20.81a.61.61 0 0 1-.55.339M168.6 198.916a.63.63 0 0 1-.508-.254l-24.162-30.888a.637.637 0 0 1 .106-.889.637.637 0 0 1 .89.106l24.161 30.887a.636.636 0 0 1-.106.889.54.54 0 0 1-.381.149M252.879 168.854l-9.296-11.326a.615.615 0 0 1 .085-.889.615.615 0 0 1 .889.085l8.491 10.31 19.418-16.471a.633.633 0 0 1 .89.064.63.63 0 0 1-.064.889zM228.739 169.257l-22.383-17.72a.636.636 0 0 1-.106-.889.636.636 0 0 1 .889-.106l21.367 16.915 8.237-10.521a.635.635 0 0 1 .889-.106.635.635 0 0 1 .106.889zM95.311 174.464c-2.011 0-3.07-.614-3.6-1.292a.636.636 0 0 1 .106-.889.637.637 0 0 1 .89.106c.89 1.122 3.79 1.058 7.75-.127 4.214-1.27 9.296-3.769 13.912-6.838 4.723-3.133 8.831-6.754 11.562-10.226 2.478-3.133 3.473-5.716 2.668-6.943-.19-.297-.105-.678.191-.89.296-.19.678-.105.889.191 1.144 1.757.17 4.742-2.731 8.426-2.817 3.556-7.031 7.282-11.859 10.479-4.785 3.176-9.846 5.674-14.251 7.008-2.393.719-4.192.995-5.527.995"/><path fill="#3FB1B5" d="M122.48 153.907a3.027 3.027 0 1 1 0-6.054 3.026 3.026 0 1 1 0 6.054m0-4.784c-.974 0-1.758.783-1.758 1.757s.784 1.757 1.758 1.757 1.757-.783 1.757-1.757-.783-1.757-1.757-1.757M240.639 168.939a3.027 3.027 0 1 1 0-6.055 3.027 3.027 0 1 1 0 6.055m0-4.785c-.974 0-1.758.783-1.758 1.757s.784 1.757 1.758 1.757 1.757-.783 1.757-1.757-.783-1.757-1.757-1.757M240.639 188.203a3.027 3.027 0 1 1 0-6.055 3.027 3.027 0 1 1 0 6.055m0-4.784c-.974 0-1.758.783-1.758 1.757s.784 1.757 1.758 1.757 1.757-.783 1.757-1.757-.783-1.757-1.757-1.757M179.019 237.255l9.55-13.612v13.612z"/><path fill="#FE5244" d="M107.191 155.643c-9.784 6.436-20.054 9.548-22.298 6.754-.043-.043-.064-.085-.106-.148-.466-.699-.424-1.652 0-2.816 1.46-3.832 7.496-9.76 15.161-14.798 6.099-4.023 12.113-6.817 16.285-7.685 2.414-.487 4.213-.339 5.082.593l.211.254c1.991 3.048-4.404 11.305-14.335 17.846"/><path fill="#E57281" d="M107.191 155.643c-5.569 3.662-11.308 6.266-15.628 7.282L72.23 135.658c-2.69-3.811-1.8-9.082 2.033-11.771l17.406-12.236-9.868-16.788a5.1 5.1 0 0 1 1.843-7.008 5.03 5.03 0 0 1 2.54-.677c1.674 0 3.325.825 4.3 2.35l30.852 47.972.212.339c1.969 3.006-4.426 11.262-14.357 17.804"/><path fill="#9A3B82" d="M97.132 135.975c-.275 0-.55-.021-.826-.085a3.94 3.94 0 0 1-2.54-1.736L83.58 118.912a.667.667 0 0 1 .17-.89.667.667 0 0 1 .889.17l10.185 15.242a2.72 2.72 0 0 0 1.736 1.186c.72.148 1.462 0 2.076-.402l2.392-1.567a2.76 2.76 0 0 0 .826-3.789l-10.778-16.704a.62.62 0 0 1 .19-.868.62.62 0 0 1 .869.191l10.778 16.703a4.02 4.02 0 0 1-1.207 5.526l-2.393 1.566a3.67 3.67 0 0 1-2.18.699"/><path fill="#9A3B82" d="M89.234 141.035a4.08 4.08 0 0 1-3.388-1.8c-.19-.296-.106-.677.19-.889.297-.19.678-.106.89.191a2.775 2.775 0 0 0 3.79.804l2.181-1.376a2.74 2.74 0 0 0 1.207-1.757c.149-.741.022-1.482-.38-2.096-.191-.296-.107-.677.19-.889.296-.191.677-.106.89.19.592.911.804 1.99.57 3.07a4.1 4.1 0 0 1-1.778 2.562l-2.18 1.376a4.3 4.3 0 0 1-2.182.614"/><path fill="#9A3B82" d="M81.484 145.778c-1.27 0-2.52-.593-3.303-1.715l-5.781-8.151c-.212-.296-.128-.677.148-.889.275-.212.677-.127.89.148l5.78 8.151c.868 1.207 2.499 1.524 3.727.741l.042-.021L85 142.92a2.78 2.78 0 0 0 1.228-1.736 2.76 2.76 0 0 0-.381-2.117l-9.974-14.82a.645.645 0 0 1 .17-.889.646.646 0 0 1 .89.17l9.973 14.819c.614.931.805 2.032.572 3.091a3.95 3.95 0 0 1-1.8 2.54l-.022.021-2.011 1.122a3.84 3.84 0 0 1-2.16.657"/><path fill="#E57281" d="m114.136 126.322-5.061-7.854a5.515 5.515 0 0 0-7.729-1.588l-12.557 8.51s3.642 6.542 12.494 1.355l2.964 4.721c-6.056 3.832-7.792 11.898-3.854 17.889z"/><path fill="#9A3B82" d="M100.393 149.99a.63.63 0 0 1-.53-.297c-1.99-3.048-2.689-6.689-1.905-10.246a13.37 13.37 0 0 1 5.421-8.172l-2.308-3.683c-3.05 1.672-5.823 2.159-8.28 1.503-3.113-.847-4.51-3.303-4.574-3.388l-.275-.508 12.366-8.637c1.398-.932 3.05-1.27 4.68-.932a6.12 6.12 0 0 1 3.939 2.71l5.061 7.854a.62.62 0 0 1-.191.868.62.62 0 0 1-.868-.19l-5.061-7.854a4.76 4.76 0 0 0-3.134-2.139 4.78 4.78 0 0 0-3.706.741l-11.37 7.939c.507.657 1.65 1.842 3.472 2.329 2.245.614 4.87.042 7.814-1.672l.529-.318 3.621 5.779-.529.339a12.15 12.15 0 0 0-5.4 7.727 12.06 12.06 0 0 0 1.736 9.273c.191.296.106.677-.19.889a.7.7 0 0 1-.318.085"/><path fill="#9A3B82" d="M107.191 155.644c-5.569 3.662-11.308 6.266-15.628 7.282l-4.807-6.774c2.69-3.515 7.496-7.749 13.193-11.496 6.098-4.022 12.112-6.817 16.284-7.685 2.414-.487 4.214-.338 5.082.593l.212.254c.021.043.042.064.063.106.021.021.021.042.042.085.022.042.043.063.064.106 1.44 3.239-4.892 11.178-14.505 17.529"/><path fill="#E57281" d="M256.563 128.334v18.609c0 5.398-7.496 9.759-16.707 9.759-9.233 0-16.708-4.361-16.708-9.759v-18.609z"/><path fill="#9A3B82" d="M228.039 153.844c-3.028-1.757-4.913-4.213-4.913-6.901v-18.609h33.437v5.166c0 5.356-3.261 10.161-8.216 12.173z"/><path fill="#E57281" d="M265.88 127.233v.317a5.82 5.82 0 0 1-5.823 5.822h-3.833c-1.292 5.208-5.993 9.082-11.626 9.082h-9.486c-5.612 0-10.334-3.853-11.604-9.082h-3.833a5.82 5.82 0 0 1-5.823-5.822v-.317a5.82 5.82 0 0 1 5.823-5.822h3.473v-4.594a9.75 9.75 0 0 1 8.343-9.654c1.037 1.736 4.171 5.885 10.566 5.653 3.007-.106 5.803-.678 8.111-1.355 2.774-.805 5.548.889 6.246 3.535.106.593.17 1.186.17 1.8v4.594h3.473c3.197 0 5.823 2.625 5.823 5.843"/><path fill="#9A3B82" d="M259.231 121.39h-2.669v-5.102c0-.445-.063-.89-.169-1.292-.699-2.646-3.473-4.34-6.247-3.535-2.308.677-5.082 1.249-8.11 1.355-6.395.233-9.529-3.917-10.567-5.653a9.75 9.75 0 0 0-8.343 9.654v4.594h-3.324s-3.812-13.782-.953-17.677c2.816-3.832 6.204-2.16 6.204-2.16S223.02 90.1 234.37 90.311c11.329.212 26.068 13.359 27.148 15.772 1.694 3.705-2.287 15.307-2.287 15.307M257.855 128.842a.525.525 0 0 1-.53-.53 4.627 4.627 0 0 1 4.616-4.615c.297 0 .53.233.53.53a.524.524 0 0 1-.53.529 3.55 3.55 0 0 0-3.557 3.556c0 .297-.233.53-.529.53M221.898 128.842a.524.524 0 0 1-.529-.53 3.55 3.55 0 0 0-3.558-3.556.524.524 0 0 1-.529-.529c0-.297.233-.53.529-.53a4.627 4.627 0 0 1 4.616 4.615c0 .297-.233.53-.529.53"/><path fill="#9A3B82" d="M251.226 117.346a.64.64 0 0 1-.317-.106c-.106-.085-2.838-2.011-6.332-.551a.547.547 0 0 1-.699-.296.55.55 0 0 1 .297-.699c4.066-1.672 7.221.572 7.348.678a.517.517 0 0 1 .106.741.46.46 0 0 1-.403.233M228.272 117.346a.55.55 0 0 1-.423-.212.535.535 0 0 1 .106-.741c.127-.105 3.303-2.35 7.348-.677a.54.54 0 0 1 .296.699.54.54 0 0 1-.699.296c-3.515-1.461-6.289.529-6.331.55a.7.7 0 0 1-.297.085M241.189 135.171c-.826 0-1.779-.169-2.859-.572a.525.525 0 0 1-.317-.677.526.526 0 0 1 .677-.318c4.447 1.652 5.908-1.27 5.972-1.397.127-.254.445-.381.699-.254s.381.445.254.699c-.021.042-1.228 2.519-4.426 2.519M239.686 131.191c-.487 0-1.016 0-1.461-.042a.526.526 0 0 1-.487-.572.526.526 0 0 1 .572-.487c1.249.085 3.176 0 3.197 0 .297-.021.529.212.551.508.021.297-.212.53-.509.551-.042 0-.91.042-1.863.042M247.817 125.645c.585 0 1.059-.797 1.059-1.779s-.474-1.778-1.059-1.778-1.059.796-1.059 1.778.474 1.779 1.059 1.779M232.634 125.645c.585 0 1.059-.797 1.059-1.779s-.474-1.778-1.059-1.778-1.059.796-1.059 1.778.474 1.779 1.059 1.779"/><path fill="#fff" d="M235.154 130.387h-6.67a2.874 2.874 0 0 1-2.859-2.858v-6.669a2.874 2.874 0 0 1 2.859-2.858h6.67a2.874 2.874 0 0 1 2.859 2.858v6.669a2.72 2.72 0 0 1-.805 1.99 2.8 2.8 0 0 1-2.054.868m-6.67-11.327c-.996 0-1.8.805-1.8 1.8v6.669c0 .995.804 1.799 1.8 1.799h6.67c.487 0 .953-.19 1.292-.55.339-.339.508-.784.508-1.249v-6.669c0-.995-.805-1.8-1.8-1.8zM251.48 130.387h-6.67a2.874 2.874 0 0 1-2.859-2.858v-6.669a2.874 2.874 0 0 1 2.859-2.858h6.67a2.874 2.874 0 0 1 2.859 2.858v6.669a2.874 2.874 0 0 1-2.859 2.858m-6.67-11.327c-.995 0-1.8.805-1.8 1.8v6.669c0 .995.805 1.799 1.8 1.799h6.67c.995 0 1.8-.804 1.8-1.799v-6.669c0-.995-.805-1.8-1.8-1.8z"/><path fill="#fff" d="M242.481 122.405h-4.977v1.059h4.977z"/><path fill="#66B0F0" d="M253.239 216.063h-23.145a4.446 4.446 0 0 1-4.447-4.446v-12.3a4.446 4.446 0 0 1 4.447-4.446h23.145a4.446 4.446 0 0 1 4.447 4.446v12.3a4.446 4.446 0 0 1-4.447 4.446m-23.145-19.922a3.17 3.17 0 0 0-3.176 3.176v12.3a3.17 3.17 0 0 0 3.176 3.175h23.145a3.17 3.17 0 0 0 3.176-3.175v-12.3a3.17 3.17 0 0 0-3.176-3.176z"/><path fill="#66B0F0" d="M242.248 210.474h-7.835a2.27 2.27 0 0 1-2.266-2.266v-5.483a2.27 2.27 0 0 1 2.266-2.265h7.835a2.27 2.27 0 0 1 2.266 2.265v5.483a2.27 2.27 0 0 1-2.266 2.266M249.872 210.325l-2.414-1.609a2.45 2.45 0 0 1-1.059-2.032v-2.413a2.45 2.45 0 0 1 1.059-2.033l2.414-1.609c.571-.381 1.313.043 1.313.762v8.193a.846.846 0 0 1-1.313.741"/><path fill="#3FB1B5" d="M562.783 285.354H.635a.624.624 0 0 1-.635-.635c0-.36.275-.635.635-.635h562.148c.36 0 .635.275.635.635s-.275.635-.635.635"/><path fill="#fff" d="M181.623 288.424v261.37h-14.759v-49.751c0-4.636-3.77-8.404-8.407-8.404H52.812c-4.637 0-8.407 3.768-8.407 8.404v49.751H29.646v-261.37z"/><path fill="#3FB1B5" d="M182.258 550.429h-16.03v-50.385c0-4.277-3.494-7.77-7.771-7.77H52.812c-4.277 0-7.771 3.493-7.771 7.77v50.385H29.01v-262.64h153.247zm-14.759-1.27h13.489v-260.1H30.281v260.1h13.49v-49.115c0-4.975 4.065-9.04 9.041-9.04h105.645c4.976 0 9.042 4.065 9.042 9.04z"/><path fill="#D0F0E4" d="M182.068 288.424v69.354L29.646 483.255l.021-194.831z"/><path fill="#3FB1B5" d="M158.901 364.32H52.388c-4.743 0-8.597-3.853-8.597-8.595v-47.4c0-4.742 3.854-8.596 8.597-8.596h106.513c4.744 0 8.598 3.854 8.598 8.596v47.4c0 4.742-3.854 8.595-8.598 8.595M52.388 301a7.33 7.33 0 0 0-7.326 7.325v47.4a7.33 7.33 0 0 0 7.326 7.325h106.513a7.33 7.33 0 0 0 7.327-7.325v-47.4a7.33 7.33 0 0 0-7.327-7.325z"/><path fill="#FFCF2D" d="M132.728 399.59h-52.43l-2.181-15.01h52.452z"/><path fill="#fff" d="M160.702 375.922c-6.544 0-11.838 5.292-11.838 11.834v11.834h-44.616v-11.834c0-6.542 5.293-11.834 11.837-11.834z"/><path fill="#3FB1B5" d="M149.5 400.226h-45.888v-12.47c0-6.88 5.591-12.469 12.473-12.469h44.617v1.27c-6.184 0-11.202 5.018-11.202 11.199zm-44.617-1.27h43.346v-11.2c0-4.911 2.859-9.166 6.988-11.199h-39.132c-6.184 0-11.202 5.018-11.202 11.199z"/><path fill="#fff" d="M171.819 384.581h-44.617a11.83 11.83 0 0 0-11.413-8.659h44.616c5.443 0 10.017 3.662 11.414 8.659"/><path fill="#3FB1B5" d="M172.666 385.216h-45.929l-.127-.466c-1.334-4.827-5.781-8.193-10.8-8.193v-1.27h44.617c5.569 0 10.524 3.747 12.028 9.125zm-44.998-1.27h43.283c-1.588-4.382-5.823-7.389-10.545-7.389h-39.133c2.986 1.461 5.358 4.107 6.395 7.389M158.901 463.546H52.388c-4.743 0-8.597-3.853-8.597-8.595V407.55c0-4.742 3.854-8.595 8.597-8.595h106.513c4.744 0 8.598 3.853 8.598 8.595v47.401c0 4.742-3.854 8.595-8.598 8.595M52.388 400.225a7.33 7.33 0 0 0-7.326 7.325v47.401a7.33 7.33 0 0 0 7.326 7.325h106.513a7.33 7.33 0 0 0 7.327-7.325V407.55a7.33 7.33 0 0 0-7.327-7.325zM127.477 331.718a.623.623 0 0 1-.635-.635 6.2 6.2 0 0 0-6.205-6.203H90.674a6.2 6.2 0 0 0-6.205 6.203c0 .36-.275.635-.635.635a.624.624 0 0 1-.635-.635 7.473 7.473 0 0 1 7.475-7.474h29.963a7.473 7.473 0 0 1 7.475 7.474c0 .36-.275.635-.635.635"/><path fill="#3FB1B5" d="M127.477 430.943a.623.623 0 0 1-.635-.635 6.2 6.2 0 0 0-6.205-6.203H90.674a6.2 6.2 0 0 0-6.205 6.203c0 .36-.275.635-.635.635a.624.624 0 0 1-.635-.635 7.473 7.473 0 0 1 7.475-7.473h29.963a7.473 7.473 0 0 1 7.475 7.473c0 .36-.275.635-.635.635"/><path fill="#fff" d="M540.4 288.424h-15.733v261.941H540.4z"/><path fill="#3FB1B5" d="M541.035 551.001h-17.004V287.789h17.004zm-15.733-1.27h14.463V289.059h-14.463z"/><path fill="#3FB1B5" d="M601.365 551.001H273.017a.625.625 0 0 1-.636-.635c0-.36.276-.636.636-.636h328.348c.36 0 .635.276.635.636a.624.624 0 0 1-.635.635"/><path fill="#fff" d="M74.327 248.792h-9.508s-13.574-56.546-25.495-58.388-12.536 19.922-12.536 19.922.211-33.09 30.005-28.559c29.816 4.53 17.534 67.025 17.534 67.025"/><path fill="#3FB1B5" d="M74.856 249.428H64.332l-.127-.487c-.042-.149-3.451-14.29-8.258-28.453-7.962-23.436-13.49-28.962-16.708-29.448-2.202-.339-4.15.169-5.76 1.524-5.611 4.657-6.035 17.656-6.035 17.783l-1.27-.021c0-.17.042-4.044 1.291-8.998 1.165-4.594 3.622-11.008 8.767-15.412 5.23-4.467 12.176-6.076 20.689-4.763 5.505.826 9.973 3.662 13.298 8.383 5.336 7.601 7.771 19.901 7.2 36.604-.424 12.385-2.414 22.674-2.435 22.779zm-9.529-1.271h8.492c.402-2.223 1.97-11.368 2.33-22.08.38-11.284-.53-26.633-6.968-35.8-3.112-4.445-7.305-7.092-12.45-7.854-8.111-1.228-14.739.275-19.673 4.488a22 22 0 0 0-3.812 4.277c1.8-1.27 3.876-1.715 6.205-1.355 5.188.804 11.16 11.008 17.724 30.316 4.299 12.681 7.496 25.383 8.152 28.008"/><path fill="#3FB1B5" d="M70.155 248.581a.64.64 0 0 1-.636-.636c-.699-42.15-9.635-57.033-17.004-62.071-5.59-3.832-10.482-2.096-10.524-2.075a.635.635 0 0 1-.826-.381.635.635 0 0 1 .381-.826c.233-.084 5.548-1.968 11.69 2.223 4.743 3.261 8.618 9.231 11.498 17.783 3.705 11.009 5.738 26.252 6.056 45.326 0 .36-.275.657-.635.657"/><path fill="#FE5244" d="M100.224 247.945h-44.66v36.35h44.66z"/><path fill="#fff" d="M109.626 266.131c-2.838 1.227-6.226 1.079-9.381-.297-2.33-1.016-4.532-2.688-6.31-4.975-2.457-3.175-4.108-7.515-4.108-12.914 0-13.083-10.419-21.297-14.696-3.98a49 49 0 0 0-.805 3.98v-.127c0-.042 0-.106.021-.169v-.085c.085-1.08.403-4.276 1.377-8.129.72-2.858 1.8-6.034 3.409-8.977.805-1.46 1.736-2.858 2.838-4.107 2.837-3.26 6.733-5.546 12.048-5.546 9.784 0 16.941 11.516 19.673 22.991 2.392 9.971 1.418 19.942-4.066 22.335"/><path fill="#3FB1B5" d="M105.454 267.592c-1.8 0-3.684-.403-5.463-1.186-2.52-1.101-4.785-2.879-6.564-5.165-2.774-3.578-4.235-8.193-4.235-13.295 0-5.971-2.626-12.703-6.544-13.168-2.837-.339-5.336 3.069-6.903 9.336a59 59 0 0 0-.805 3.937l-1.27-.105v-.128c0-.042 0-.148.021-.254v-.063c.085-1.186.424-4.361 1.398-8.235.868-3.43 2.032-6.5 3.472-9.125.911-1.63 1.864-3.027 2.923-4.213 3.324-3.832 7.538-5.758 12.536-5.758 10.164 0 17.512 11.792 20.286 23.478 1.228 5.144 1.567 10.204.932 14.248-.699 4.551-2.563 7.579-5.358 8.807-1.355.592-2.859.889-4.426.889m-23.187-34.106c.19 0 .36.021.53.042 4.235.509 7.665 6.987 7.665 14.439 0 4.827 1.376 9.166 3.981 12.533 1.652 2.117 3.748 3.768 6.056 4.784 3.028 1.313 6.268 1.419 8.873.296 4.743-2.074 6.247-10.945 3.706-21.593-1.419-5.992-3.939-11.517-7.073-15.561-3.536-4.551-7.666-6.944-11.985-6.944-4.596 0-8.492 1.8-11.562 5.335a21.8 21.8 0 0 0-2.753 4.002c-1.059 1.947-1.97 4.128-2.71 6.541.36-.592.72-1.122 1.1-1.587 1.504-1.842 3.029-2.287 4.172-2.287"/><path fill="#3FB1B5" d="M107.36 267.168a.64.64 0 0 1-.635-.571c-3.092-29.025-10.143-38.001-15.5-40.415-4.786-2.159-8.83.657-8.873.678-.275.212-.678.127-.89-.148-.211-.276-.127-.678.149-.889.19-.127 4.68-3.261 10.122-.805 3.6 1.63 6.733 5.314 9.296 10.987 3.218 7.093 5.548 17.339 6.945 30.444a.636.636 0 0 1-.571.698c0 .021-.022.021-.043.021M26.152 210.325c0 3.494-.402 16.852 12.345 17.466s14.018-18.63 14.018-18.63-6.268-17.021-13.192-18.757c-11.71-2.943-13.171 19.921-13.171 19.921"/><path fill="#3FB1B5" d="M89.827 247.945h-15.5c3.578-22.419 15.5-13.993 15.5 0"/><path fill="#fff" d="M353.06 83.282v139.746c0 7.515-6.098 13.591-13.594 13.591H179.484c-10.037 13.824-30.726 13.888-40.847 0l-.022-.021c-4.023-.275-7.58-2.329-9.867-5.356l3.684-3.176 94.02-81.125 89.53-77.25h23.484c7.496 0 13.594 6.096 13.594 13.59M109.626 266.766c-2.816 1.27-6.226 1.079-9.381-.297v17.826h-32.97l26.681-23.012 6.31-5.441 4.807-4.15 9.296-7.896c2.711 11.559 1.207 20.239-4.743 22.97" opacity=".4"/><path fill="#A0505A" d="M390.392 360.826v117.835H363.16l-17.343-48.417-24.838-69.418z"/><path fill="#73325A" d="M320.979 360.826h69.413v37.832l-61.155-14.777z"/><path fill="#fff" d="M391.027 479.296h-28.311l-18.063-50.428 1.482.805c.042.021 3.558 1.905 10.715 2.836 6.607.868 17.787 1.059 33.394-2.9l.783-.19zm-27.422-1.27h26.152v-46.977c-15.458 3.832-26.554 3.599-33.182 2.731-4.807-.635-7.984-1.673-9.656-2.35z"/><path fill="#fff" d="M359.984 442.248a3.73 3.73 0 0 1-3.727-3.726 3.73 3.73 0 0 1 3.727-3.726 3.73 3.73 0 0 1 3.727 3.726 3.73 3.73 0 0 1-3.727 3.726m0-6.182a2.46 2.46 0 0 0-2.457 2.456 2.46 2.46 0 0 0 2.457 2.456 2.46 2.46 0 0 0 2.456-2.456 2.46 2.46 0 0 0-2.456-2.456M374.723 452.22a3.73 3.73 0 0 1-3.727-3.726 3.73 3.73 0 0 1 3.727-3.726 3.73 3.73 0 0 1 3.726 3.726 3.73 3.73 0 0 1-3.726 3.726m0-6.182a2.46 2.46 0 0 0-2.457 2.456 2.457 2.457 0 0 0 4.913 0 2.46 2.46 0 0 0-2.456-2.456M385.691 441.147a3.73 3.73 0 0 1-3.727-3.726 3.73 3.73 0 0 1 3.727-3.726 3.73 3.73 0 0 1 3.727 3.726 3.73 3.73 0 0 1-3.727 3.726m0-6.181a2.46 2.46 0 0 0-2.457 2.455 2.46 2.46 0 0 0 2.457 2.456 2.46 2.46 0 0 0 2.456-2.456 2.457 2.457 0 0 0-2.456-2.455M381.35 463.82a3.73 3.73 0 0 1-3.727-3.726 3.73 3.73 0 0 1 3.727-3.726 3.73 3.73 0 0 1 3.727 3.726 3.73 3.73 0 0 1-3.727 3.726m0-6.182a2.46 2.46 0 0 0-2.456 2.456 2.46 2.46 0 0 0 2.456 2.456 2.46 2.46 0 0 0 2.456-2.456 2.46 2.46 0 0 0-2.456-2.456M363.076 458.189a3.73 3.73 0 0 1-3.727-3.726 3.73 3.73 0 0 1 3.727-3.726 3.73 3.73 0 0 1 3.727 3.726 3.73 3.73 0 0 1-3.727 3.726m0-6.181a2.457 2.457 0 0 0-2.456 2.455 2.46 2.46 0 0 0 2.456 2.456 2.46 2.46 0 0 0 2.456-2.456 2.457 2.457 0 0 0-2.456-2.455M368.116 475.126a3.73 3.73 0 0 1-3.727-3.726 3.73 3.73 0 0 1 3.727-3.726 3.73 3.73 0 0 1 3.726 3.726 3.73 3.73 0 0 1-3.726 3.726m0-6.182a2.46 2.46 0 0 0-2.457 2.456 2.46 2.46 0 0 0 2.457 2.456 2.46 2.46 0 0 0 2.456-2.456 2.46 2.46 0 0 0-2.456-2.456"/><path fill="#66B0F0" d="m403.267 500.636-18.677 38.763a16.9 16.9 0 0 1-15.564 10.31h-23.823c-6.098 0-9.804-6.182-7.475-11.813l23.95-57.753a18.25 18.25 0 0 1 6.628-8.49 18 18 0 0 1 10.27-3.217c5.209 0 10.376 3.535 13.807 7.452l8.3 8.955c3.833 4.361 4.828 10.479 2.584 15.793"/><path fill="#fff" d="m403.267 500.635-18.677 38.763a16.9 16.9 0 0 1-15.564 10.31H343.7c-2.35 0-3.685-1.46-4.468-3.472h5.633a16.9 16.9 0 0 0 15.564-10.31l21.535-44.902a12.14 12.14 0 0 1 10.927-6.88c6.077 0 10.693 4.445 11.54 10.077a15.04 15.04 0 0 1-1.164 6.414"/><path fill="#66B0F0" d="M369.026 550.344H343.7c-2.351 0-4.066-1.313-5.061-3.874-.085-.191-.043-.424.063-.593a.66.66 0 0 1 .53-.275h5.632a16.22 16.22 0 0 0 14.972-9.929s0-.021.021-.021l21.535-44.903c2.118-4.403 6.628-7.24 11.499-7.24 6.119 0 11.244 4.467 12.176 10.627v.064a15.84 15.84 0 0 1-1.207 6.69s0 .021-.022.021l-18.676 38.742a17.49 17.49 0 0 1-16.136 10.691m-28.799-3.472c.805 1.503 1.927 2.202 3.473 2.202h25.326c6.543 0 12.43-3.896 14.971-9.929 0 0 0-.022.021-.022l18.677-38.741a14.36 14.36 0 0 0 1.101-6.097c-.847-5.505-5.421-9.506-10.905-9.506-4.384 0-8.449 2.562-10.355 6.521L361 536.181a17.49 17.49 0 0 1-16.136 10.691z"/><path fill="#fff" d="M398.968 482.98c-2.245-1.228-4.955-2.117-7.327-2.117-4.552 0-8.766 2.646-10.736 6.753l-22.298 46.491a18.1 18.1 0 0 1-16.707 11.051h-4.108c-.212-.403-.36-.826-.508-1.271h4.616a16.85 16.85 0 0 0 15.543-10.288l.021-.022 22.319-46.511c2.181-4.552 6.84-7.473 11.88-7.473 1.609 0 3.536.529 5.188 1.101z"/><path fill="#A0505A" d="m320.979 360.826-5.315 69.418-2.372 31.099s-15.479 17.233-33.098 6.605l-8.152-37.683-18.656-86.227c-5.04-23.309 10.884-45.982 34.538-49.137z"/><path fill="#fff" d="M292.116 472.881c-3.79 0-7.962-.953-12.239-3.536l-.233-.148-8.428-39.843 1.016.318c20.053 6.012 43.05.042 43.283-.021l.868-.233-2.456 33.047-.148.169c-.17.17-4.024 4.425-10.143 7.431-3.071 1.482-7.052 2.816-11.52 2.816m-11.35-4.488c7.03 4.149 14.526 4.318 22.277.529 5.251-2.583 8.893-6.224 9.634-7.007l2.287-30.846c-1.927.445-6.924 1.525-13.383 2.117-7.432.699-18.337.868-28.713-2.011z"/><path fill="#fff" d="M291.332 450.08a3.73 3.73 0 0 1-3.727-3.726 3.73 3.73 0 0 1 3.727-3.726 3.73 3.73 0 0 1 3.727 3.726 3.73 3.73 0 0 1-3.727 3.726m0-6.182a2.46 2.46 0 0 0-2.456 2.456 2.46 2.46 0 0 0 2.456 2.456 2.46 2.46 0 0 0 2.457-2.456 2.46 2.46 0 0 0-2.457-2.456M310.983 445.339a3.73 3.73 0 0 1-3.727-3.726 3.73 3.73 0 0 1 3.727-3.726 3.73 3.73 0 0 1 3.727 3.726 3.73 3.73 0 0 1-3.727 3.726m0-6.182a2.46 2.46 0 0 0-2.456 2.456 2.457 2.457 0 0 0 4.913 0 2.46 2.46 0 0 0-2.457-2.456M279.474 441.146a3.73 3.73 0 0 1-3.727-3.726 3.73 3.73 0 0 1 3.727-3.726 3.73 3.73 0 0 1 3.727 3.726 3.73 3.73 0 0 1-3.727 3.726m0-6.181a2.457 2.457 0 0 0-2.456 2.455 2.46 2.46 0 0 0 2.456 2.456 2.46 2.46 0 0 0 2.456-2.456 2.457 2.457 0 0 0-2.456-2.455M288.241 466.911a3.73 3.73 0 0 1-3.727-3.726 3.73 3.73 0 0 1 3.727-3.726 3.73 3.73 0 0 1 3.727 3.726 3.73 3.73 0 0 1-3.727 3.726m0-6.182a2.46 2.46 0 0 0-2.456 2.456 2.46 2.46 0 0 0 2.456 2.456 2.46 2.46 0 0 0 2.456-2.456 2.46 2.46 0 0 0-2.456-2.456M302.661 460.729a3.73 3.73 0 0 1-3.726-3.726 3.73 3.73 0 0 1 3.726-3.726 3.73 3.73 0 0 1 3.727 3.726 3.73 3.73 0 0 1-3.727 3.726m0-6.181a2.457 2.457 0 0 0-2.456 2.455 2.46 2.46 0 0 0 2.456 2.456 2.46 2.46 0 0 0 2.457-2.456 2.457 2.457 0 0 0-2.457-2.455"/><path fill="#66B0F0" d="m333.705 468.753-20.413 81.612h-6.437c-.297 0-.572-.021-.869-.042-4.87-.445-8.978-4.552-10.016-9.4l-15.797-73.017c17.618 10.649 33.119-6.584 33.119-6.584z"/><path fill="#fff" d="M334.743 510.629c4.298-22.695 5.484-40.034-1.927-41.431-7.412-1.397-20.604 13.655-24.903 36.35-4.298 22.694-2.054 42.764 5.358 44.161 7.411 1.419 17.173-16.364 21.472-39.08"/><path fill="#66B0F0" d="M314.118 550.429a5 5 0 0 1-.975-.085c-3.853-.719-6.543-5.927-7.58-14.65-.996-8.404-.382-19.159 1.715-30.252 1.99-10.479 6.035-20.239 11.392-27.479 4.913-6.627 10.249-10.141 14.251-9.379 3.854.72 5.76 5.081 5.866 13.338.085 6.732-1.038 16.153-3.43 28.834-1.694 8.934-4.257 17.338-7.412 24.303-3.113 6.881-6.522 11.708-9.847 13.973-1.355.91-2.689 1.397-3.98 1.397m17.702-80.68c-3.388 0-7.941 3.344-12.112 8.976-5.252 7.092-9.212 16.661-11.181 26.95-2.075 10.987-2.689 21.594-1.715 29.871.953 8.003 3.346 12.935 6.564 13.549 1.229.233 2.584-.148 4.024-1.122 6.501-4.424 13.383-19.815 16.707-37.45 2.393-12.575 3.494-21.933 3.409-28.58-.084-7.452-1.715-11.517-4.828-12.11a4 4 0 0 0-.868-.084"/><path fill="#fff" d="M304.948 505.188c-2.223 11.77-2.879 23.139-1.821 32.03.763 6.394 2.372 10.946 4.574 13.147h-.847c-.296 0-.572-.021-.868-.042-1.99-2.625-3.409-7.029-4.129-12.956-1.08-8.998-.424-20.515 1.842-32.412 2.139-11.263 6.459-21.827 12.197-29.766 3.431-4.742 7.03-8.066 10.313-9.569l1.905.635c-7.559 2.244-19.036 17.148-23.166 38.933"/><path fill="#FE5244" d="m287.924 294.881 96.603-9.95 96.561 27.077-.826 12.829c-1.313 20.239-18.762 35.99-39.048 35.99H321.001z"/><path fill="#fff" d="M436.957 352.572H316.744a.625.625 0 0 1-.636-.636c0-.359.276-.635.636-.635h120.213c9.19 0 18.825-4.848 26.449-13.337 7.22-8.045 11.54-18.101 11.54-26.887 0-.359.276-.635.636-.635s.635.276.635.635c0 9.104-4.447 19.477-11.859 27.755-7.877 8.722-17.851 13.74-27.401 13.74"/><path fill="#fff" d="M427.492 341.986H311.874a.624.624 0 0 1-.636-.635c0-.36.276-.635.636-.635h115.618c8.026 0 16.326-3.769 23.336-10.628 6.585-6.436 11.201-14.735 12.663-22.779a.644.644 0 0 1 .741-.509.644.644 0 0 1 .508.741c-2.986 16.281-19.016 34.445-37.248 34.445"/><path fill="#fff" d="M417.306 331.188H305.732a.623.623 0 0 1-.635-.635c0-.36.275-.635.635-.635h111.574c15.247 0 28.482-13.718 33.204-26.611.127-.339.487-.508.804-.381.339.127.509.487.382.804-2.626 7.177-7.37 13.931-13.383 19.011-6.544 5.526-13.807 8.447-21.007 8.447"/><path fill="#fff" d="M411.801 319.545H300.227a.623.623 0 0 1-.635-.635c0-.36.275-.635.635-.635h111.574c10.503 0 21.514-6.838 28.756-17.825a.647.647 0 0 1 .89-.191c.296.19.381.593.19.889-7.496 11.347-18.909 18.397-29.836 18.397"/><path fill="#fff" d="M406.507 308.96H294.933a.624.624 0 0 1-.635-.636c0-.359.275-.635.635-.635h111.574c8.089 0 16.242-3.726 22.955-10.479a.614.614 0 0 1 .889 0 .614.614 0 0 1 0 .889c-6.946 7.008-15.416 10.861-23.844 10.861M400.79 298.163H289.216a.623.623 0 0 1-.635-.635c0-.36.275-.635.635-.635H400.79c4.764 0 9.55-1.355 14.251-4.002a.65.65 0 0 1 .868.233.647.647 0 0 1-.233.868c-4.891 2.774-9.91 4.171-14.886 4.171"/><path fill="#fff" d="M320.768 361.463a.62.62 0 0 1-.572-.36l-33.055-65.946c-.149-.318-.021-.699.275-.847.318-.148.699-.021.847.275l33.055 65.946c.148.318.021.699-.275.847a.42.42 0 0 1-.275.085M486.381 223.643c-9.105 2.582-18.063 1.82-19.016-.953-.889-2.646 3.134-7.177 11.287-10.183.402-.148.826-.296 1.249-.445a36.3 36.3 0 0 1 7.221-1.63c6.84-.868 12.409.36 13.108 2.435.953 2.773-4.214 8.045-13.849 10.776"/><path fill="#3FB1B5" d="M475.539 225.865c-4.616 0-8.11-1.038-8.788-2.964-1.143-3.387 3.875-8.108 11.668-10.988.402-.148.826-.296 1.249-.444h.022a36.8 36.8 0 0 1 7.347-1.651c7.01-.89 12.939.338 13.786 2.858.296.825.148 1.841-.403 2.9-1.778 3.387-7.22 6.817-13.87 8.701-3.832 1.058-7.707 1.588-11.011 1.588m15.924-15.074c-1.292 0-2.71.085-4.256.276a35.7 35.7 0 0 0-7.094 1.609c-.423.148-.847.296-1.228.444-3.685 1.355-6.819 3.155-8.809 5.081-1.673 1.609-2.456 3.218-2.096 4.298.698 2.053 8.851 3.196 18.232.55 5.188-1.461 11.244-4.53 13.086-8.066.381-.741.508-1.397.339-1.905-.381-1.122-3.388-2.287-8.174-2.287"/><path fill="#A0505A" d="M480.621 285.374h-3.494l-9.169-61.881v-.042l-.233-1.545c.445-2.816 4.849-6.796 12.621-9.379 3.875-1.291 7.729-1.863 11.011-1.926l3.346 9.166.317.868 10.588 29.025c6.353 17.339-6.501 35.714-24.987 35.714"/><path fill="#73325A" d="M494.914 220.424c-2.223 1.397-5.103 2.688-8.533 3.662-7.878 2.223-15.861 1.313-18.423-.593v-.042l-.233-1.545c.445-2.816 4.849-6.796 12.621-9.379 3.875-1.291 7.729-1.863 11.011-1.926z"/><path fill="#A0505A" d="m367.205 234.46-11.117 27.649c-5.485 13.655-18.741 22.61-33.479 22.61H173.173v-13.676a7.93 7.93 0 0 1 5.125-7.431l15.352-5.822a12.2 12.2 0 0 1 4.341-.805h17.428l98.635-9.95 17.025-38.974z"/><path fill="#73325A" d="M173.809 276.822a.624.624 0 0 1-.636-.635 6.59 6.59 0 0 1 4.278-6.203l11.583-4.382a.65.65 0 0 1 .826.36.65.65 0 0 1-.36.826l-11.583 4.382c-2.097.804-3.473 2.773-3.473 5.017 0 .36-.275.635-.635.635M173.809 283.808a.625.625 0 0 1-.636-.635 6.59 6.59 0 0 1 4.278-6.203l11.583-4.383a.65.65 0 0 1 .826.36.65.65 0 0 1-.36.826l-11.583 4.382c-2.097.805-3.473 2.773-3.473 5.018a.624.624 0 0 1-.635.635M177.683 284.719a.635.635 0 0 1-.592-.423.605.605 0 0 1 .381-.805l11.583-4.171a.604.604 0 0 1 .804.382.605.605 0 0 1-.381.804l-11.583 4.171a.8.8 0 0 1-.212.042"/><path fill="#FE5244" d="M188.06 260.139s10.841-27.669 14.314-27.203c3.473.465-9.613 25.425-9.613 25.425z"/><path fill="#73325A" d="m331.079 208.082-2.498 5.695 31.996 37.154 6.628-16.471z"/><path fill="#3FB1B5" d="m467.958 223.515 13.129 88.493-96.539-27.077-17.343-50.492-44.765-32.708 15.712-18.715a73.79 73.79 0 0 1 56.518-26.357h31.022c26.978 0 51.817 14.735 64.755 38.403l10.058 17.402s-3.028-4.445-19.354.022c-14.378 3.958-13.193 11.029-13.193 11.029"/><path fill="#fff" d="M367.205 234.672c-.042 0-.106 0-.148-.022a.63.63 0 0 1-.466-.762l5.019-21.763a.631.631 0 1 1 1.228.296l-5.019 21.764a.61.61 0 0 1-.614.487M478.652 291.98a.65.65 0 0 1-.635-.529l-16.327-101.47a.613.613 0 0 1 .53-.72.61.61 0 0 1 .719.53l16.327 101.469a.61.61 0 0 1-.529.72zM480.876 312.643c-.064 0-.106 0-.17-.021l-96.349-27.48a.65.65 0 0 1-.444-.783.65.65 0 0 1 .783-.444l96.349 27.479a.65.65 0 0 1 .445.783.66.66 0 0 1-.614.466"/><path fill="#A0505A" d="M389.735 142.517v14.227l25.115-.212v-25.108z"/><path fill="#A0505A" d="M416.883 127.041v.381c0 3.811-2.88 6.902-6.692 6.902h-1.482c-.953 3.768-9.423 8.172-15.437 8.172h-7.009c-7.666 0-13.531-6.881-12.282-14.46l.339-2.053-2.075-1.165a2.255 2.255 0 0 1-.699-3.323l4.489-5.928.974-5.843c.784-4.806 3.939-8.722 8.131-10.649 1.652 18.609 18.084 20.811 22.425 21.065h2.414a6.904 6.904 0 0 1 6.904 6.901"/><path fill="#73325A" d="M405.766 129.497a.624.624 0 0 1-.636-.635c0-3.345 2.732-6.076 6.078-6.076.36 0 .635.275.635.635s-.275.635-.635.635a4.817 4.817 0 0 0-4.807 4.806c0 .36-.275.635-.635.635M382.811 120.33c.597 0 1.08-1.118 1.08-2.498s-.483-2.498-1.08-2.498c-.596 0-1.08 1.118-1.08 2.498s.484 2.498 1.08 2.498M387.216 114.678a.63.63 0 0 1-.509-.254c-2.816-3.895-5.442-3.684-5.484-3.684-.36.043-.657-.211-.699-.571a.64.64 0 0 1 .572-.699c.127-.021 3.388-.275 6.628 4.192a.625.625 0 0 1-.148.889.57.57 0 0 1-.36.127"/><path fill="#73325A" d="M407.566 120.14h2.414a6.904 6.904 0 0 1 6.903 6.902v.381c0 3.81-2.88 6.901-6.692 6.901l-1.63 1.143c-6.861 4.404-16.348 21.721-14.018 33.979 2.625 13.782 14.632 16.852 25.728 14.735s19.185-8.574 16.559-22.378c-.296-1.63-.783-3.26-1.397-4.869.19.064.36.127.55.191 13.341 3.641 29.011 4.065 33.331-6.351 4.319-10.416 3.345-20.726-9.635-26.103-7.539-3.134-17.788-3.112-25.729-.953 4.003-13.909-3.112-29.385-16.178-30.93-20.519-2.435-32.293 6.034-32.61 6.266-.021 2.456 1.651 19.879 22.404 21.086"/><path fill="#fff" d="M435.983 157.781c-.296 0-.572-.211-.614-.508-2.245-11.749-11.858-18.228-11.964-18.291a.63.63 0 0 1-.276-.529c0-.212.106-.403.276-.53 6.564-4.636 9.402-11.326 10.503-14.882.106-.339.466-.53.783-.424.339.106.53.466.424.783-1.101 3.599-3.896 10.205-10.27 15.031 2.393 1.8 9.783 8.109 11.773 18.588a.64.64 0 0 1-.508.741c-.042.021-.085.021-.127.021"/><path fill="#FE5244" d="M440.24 123.4h-5.612a.623.623 0 0 1-.635-.635v-5.61a5.955 5.955 0 0 1 5.951-5.949h.296a5.955 5.955 0 0 1 5.95 5.949v.296a5.8 5.8 0 0 1-1.715 4.192 5.96 5.96 0 0 1-4.235 1.757m-4.976-1.27h4.976a4.58 4.58 0 0 0 3.325-1.397 4.68 4.68 0 0 0 1.355-3.282v-.296a4.68 4.68 0 0 0-4.68-4.679h-.296a4.68 4.68 0 0 0-4.68 4.679z"/><path fill="#FE5244" d="M443.374 131.995c-2.266 0-4.447-1.101-5.739-3.133l-3.6-5.716c-.19-.296-.106-.699.191-.868l5.717-3.599a6.76 6.76 0 0 1 5.104-.868 6.8 6.8 0 0 1 4.235 2.985l.339.529a6.66 6.66 0 0 1 .868 5.102 6.8 6.8 0 0 1-2.986 4.235l-.529.338a7.04 7.04 0 0 1-3.6.995m-7.92-8.997 3.261 5.187c1.61 2.54 5.019 3.302 7.602 1.693l.53-.338a5.36 5.36 0 0 0 2.414-3.43c.317-1.44.063-2.9-.72-4.149l-.339-.53a5.36 5.36 0 0 0-3.431-2.413 5.5 5.5 0 0 0-4.15.72zM408.688 148.932c-.148 0-.297 0-.445-.021a5.94 5.94 0 0 1-4.066-2.053l-.19-.233a5.86 5.86 0 0 1-1.44-4.277 5.87 5.87 0 0 1 2.033-4.086l3.981-3.81a.56.56 0 0 1 .466-.17c.169 0 .338.085.444.212l3.918 4.425c1.037 1.206 1.567 2.752 1.44 4.34a5.93 5.93 0 0 1-2.054 4.064l-.254.191a5.8 5.8 0 0 1-3.833 1.418m.296-13.125-3.515 3.366-.021.021a4.65 4.65 0 0 0-1.609 3.239 4.62 4.62 0 0 0 1.122 3.366s0 .021.021.021l.191.233a4.68 4.68 0 0 0 3.176 1.609 4.76 4.76 0 0 0 3.409-1.122l.254-.212a4.68 4.68 0 0 0 1.61-3.175 4.76 4.76 0 0 0-1.123-3.409z"/><path fill="#FE5244" d="M416.798 146.604a6.82 6.82 0 0 1-6.543-4.954l-1.8-6.499a.65.65 0 0 1 .445-.784l6.501-1.799a6.757 6.757 0 0 1 8.322 4.678l.169.614a6.76 6.76 0 0 1-.614 5.124 6.75 6.75 0 0 1-4.066 3.196l-.614.17a6 6 0 0 1-1.8.254m-5.315-5.293c.826 2.901 3.854 4.637 6.755 3.832l.614-.169a5.47 5.47 0 0 0 3.304-2.583c.72-1.27.889-2.752.508-4.171l-.17-.614a5.47 5.47 0 0 0-2.583-3.302c-1.27-.72-2.753-.889-4.172-.508l-5.886 1.63z"/><path fill="#FFCF2D" d="M316.193 550.344c-.043 0-.085 0-.127-.021a.624.624 0 0 1-.487-.762l36.887-172.603a.625.625 0 0 1 .763-.486.625.625 0 0 1 .487.762l-36.909 172.602a.634.634 0 0 1-.614.508M484.369 550.345a.63.63 0 0 1-.614-.508l-36.888-172.603a.663.663 0 0 1 .487-.762.664.664 0 0 1 .763.487l36.887 172.602a.663.663 0 0 1-.487.763c-.063.021-.106.021-.148.021"/><path fill="#FFCF2D" d="M475.687 512.026h-151.32a.624.624 0 0 1-.636-.635c0-.36.276-.635.636-.635h151.32c.36 0 .635.275.635.635s-.275.635-.635.635"/><path fill="#fff" d="M476.512 377.106H324.027a3.497 3.497 0 0 1-3.494-3.493v-9.294a3.497 3.497 0 0 1 3.494-3.493h152.485a3.497 3.497 0 0 1 3.494 3.493v9.294a3.497 3.497 0 0 1-3.494 3.493"/><path fill="#66B0F0" d="M476.512 377.742H324.027a4.12 4.12 0 0 1-4.129-4.128v-9.294a4.12 4.12 0 0 1 4.129-4.129h152.485a4.12 4.12 0 0 1 4.13 4.129v9.294a4.12 4.12 0 0 1-4.13 4.128m-152.485-16.28a2.874 2.874 0 0 0-2.859 2.858v9.294a2.874 2.874 0 0 0 2.859 2.858h152.485a2.874 2.874 0 0 0 2.859-2.858v-9.294a2.874 2.874 0 0 0-2.859-2.858z"/></svg>